ffmpeg started on 2025-06-07 at 15:05:24
Report written to "D:\Convert\FFMetrics\reports\psnr_report-6.txt"
Log level: 32
Command line:
ffmpeg -hide_banner -nostdin -i "G:\\\xc0\xed\xe8\xec\xe5\\\xce\xed\xe3\xee\xe8\xed\xe3\xe8\\!_36_\xce\xf1\xe5\xed\xfc_2024\\DreamCast\\\xd1\xee\xe1\xeb\xe0\xe7\xed 2,5-\xec\xe5\xf0\xed\xee\xe3\xee \xe8\xe7\xec\xe5\xf0\xe5\xed\xe8\xff\\[DC] 2-5 Jigen no Ririsa - 06_Telegram_HEVC.mkv" -i "G:\\\xc0\xed\xe8\xec\xe5\\\xce\xed\xe3\xee\xe8\xed\xe3\xe8\\!_36_\xce\xf1\xe5\xed\xfc_2024\\DreamCast\\\xd1\xee\xe1\xeb\xe0\xe7\xed 2,5-\xec\xe5\xf0\xed\xee\xe3\xee \xe8\xe7\xec\xe5\xf0\xe5\xed\xe8\xff\\[DC] 2-5 Jigen no Ririsa - 06_Telegram.mp4" -lavfi "[0:v]settb=AVTB,setpts=PTS-STARTPTS,format=pix_fmts=yuv420p10,fps=24000/1001,scale=1920:1080:flags=bicubic[main];[1:v]settb=AVTB,setpts=PTS-STARTPTS,format=pix_fmts=yuv420p,fps=24000/1001,scale=1920:1080:flags=bicubic[ref];[main][ref]psnr=eof_action=endall:stats_file='D\\:/Convert/FFMetrics/logs/psnr_logfile-6.txt'" -f null -
Input #0, matroska,webm, from 'G:\Аниме\Онгоинги\!_36_Осень_2024\DreamCast\Соблазн 2,5-мерного измерения\[DC] 2-5 Jigen no Ririsa - 06_Telegram_HEVC.mkv':
  Metadata:
    COMPATIBLE_BRANDS: isomiso2avc1mp41
    MAJOR_BRAND     : isom
    MINOR_VERSION   : 512
    ENCODER         : Lavf61.7.100
  Duration: 00:24:08.71, start: -0.021000, bitrate: 1299 kb/s
  Stream #0:0: Video: hevc (Main 10), yuv420p10le(tv, bt709, progressive), 1920x1080 [SAR 1:1 DAR 16:9], 23.98 fps, 23.98 tbr, 1k tbn (default)
      Metadata:
        HANDLER_NAME    : VideoHandler
        VENDOR_ID       : [0][0][0][0]
        ENCODER         : Lavc61.19.100 libx265
        BPS             : 1102716
        DURATION        : 00:24:08.571708333
        NUMBER_OF_FRAMES: 34731
        NUMBER_OF_BYTES : 199670348
        _STATISTICS_WRITING_APP: mkvpropedit v66.0.0 ('Josie') 64-bit
        _STATISTICS_WRITING_DATE_UTC: 2025-06-04 10:23:16
        _STATISTICS_TAGS: BPS DURATION NUMBER_OF_FRAMES NUMBER_OF_BYTES
  Stream #0:1: Audio: aac (LC), 48000 Hz, stereo, fltp (default)
      Metadata:
        HANDLER_NAME    : SoundHandler
        VENDOR_ID       : [0][0][0][0]
        ENCODER         : Lavc61.19.100 aac
        BPS             : 193177
        DURATION        : 00:24:08.704000000
        NUMBER_OF_FRAMES: 67909
        NUMBER_OF_BYTES : 34982113
        _STATISTICS_WRITING_APP: mkvpropedit v66.0.0 ('Josie') 64-bit
        _STATISTICS_WRITING_DATE_UTC: 2025-06-04 10:23:16
        _STATISTICS_TAGS: BPS DURATION NUMBER_OF_FRAMES NUMBER_OF_BYTES
Input #1, mov,mp4,m4a,3gp,3g2,mj2, from 'G:\Аниме\Онгоинги\!_36_Осень_2024\DreamCast\Соблазн 2,5-мерного измерения\[DC] 2-5 Jigen no Ririsa - 06_Telegram.mp4':
  Metadata:
    major_brand     : isom
    minor_version   : 512
    compatible_brands: isomiso2avc1mp41
    encoder         : Lavf61.1.100
  Duration: 00:24:08.66, start: 0.000000, bitrate: 3491 kb/s
  Stream #1:0[0x1](und): Video: h264 (High) (avc1 / 0x31637661), yuv420p(tv, bt709, progressive), 1920x1080 [SAR 1:1 DAR 16:9], 3343 kb/s, 23.98 fps, 23.98 tbr, 24k tbn (default)
      Metadata:
        handler_name    : VideoHandler
        vendor_id       : [0][0][0][0]
        encoder         : Lavc61.3.100 h264_qsv
  Stream #1:1[0x2](und): Audio: aac (HE-AACv2) (mp4a / 0x6134706D), 48000 Hz, stereo, fltp, 144 kb/s (default)
      Metadata:
        handler_name    : SoundHandler
        vendor_id       : [0][0][0][0]
Stream mapping:
  Stream #0:0 (hevc) -> settb:default
  Stream #1:0 (h264) -> settb:default
  psnr:default -> Stream #0:0 (wrapped_avframe)
  Stream #0:1 -> #0:1 (aac (native) -> pcm_s16le (native))
Output #0, null, to 'pipe:':
  Metadata:
    COMPATIBLE_BRANDS: isomiso2avc1mp41
    MAJOR_BRAND     : isom
    MINOR_VERSION   : 512
    encoder         : Lavf61.7.100
  Stream #0:0: Video: wrapped_avframe, yuv420p10le(tv, bt709, progressive), 1920x1080 [SAR 1:1 DAR 16:9], q=2-31, 200 kb/s, 23.98 fps, 23.98 tbn
      Metadata:
        encoder         : Lavc61.19.100 wrapped_avframe
  Stream #0:1: Audio: pcm_s16le, 48000 Hz, stereo, s16, 1536 kb/s (default)
      Metadata:
        HANDLER_NAME    : SoundHandler
        VENDOR_ID       : [0][0][0][0]
        _STATISTICS_TAGS: BPS DURATION NUMBER_OF_FRAMES NUMBER_OF_BYTES
        BPS             : 193177
        DURATION        : 00:24:08.704000000
        NUMBER_OF_FRAMES: 67909
        NUMBER_OF_BYTES : 34982113
        _STATISTICS_WRITING_APP: mkvpropedit v66.0.0 ('Josie') 64-bit
        _STATISTICS_WRITING_DATE_UTC: 2025-06-04 10:23:16
        encoder         : Lavc61.19.100 pcm_s16le
frame=  182 fps=0.0 q=-0.0 size=N/A time=00:00:07.59 bitrate=N/A speed=14.7x    frame=  414 fps=404 q=-0.0 size=N/A time=00:00:17.26 bitrate=N/A speed=16.8x    frame=  657 fps=426 q=-0.0 size=N/A time=00:00:27.40 bitrate=N/A speed=17.7x    frame=  894 fps=436 q=-0.0 size=N/A time=00:00:37.28 bitrate=N/A speed=18.2x    frame= 1130 fps=438 q=-0.0 size=N/A time=00:00:47.13 bitrate=N/A speed=18.3x    frame= 1388 fps=449 q=-0.0 size=N/A time=00:00:57.89 bitrate=N/A speed=18.7x    frame= 1634 fps=453 q=-0.0 size=N/A time=00:01:08.15 bitrate=N/A speed=18.9x    frame= 1840 fps=447 q=-0.0 size=N/A time=00:01:16.74 bitrate=N/A speed=18.6x    frame= 2043 fps=440 q=-0.0 size=N/A time=00:01:25.21 bitrate=N/A speed=18.4x    frame= 2285 fps=444 q=-0.0 size=N/A time=00:01:35.30 bitrate=N/A speed=18.5x    frame= 2477 fps=437 q=-0.0 size=N/A time=00:01:43.31 bitrate=N/A speed=18.2x    frame= 2688 fps=434 q=-0.0 size=N/A time=00:01:52.11 bitrate=N/A speed=18.1x    frame= 2894 fps=432 q=-0.0 size=N/A time=00:02:00.70 bitrate=N/A speed=  18x    frame= 3089 fps=428 q=-0.0 size=N/A time=00:02:08.83 bitrate=N/A speed=17.9x    frame= 3287 fps=425 q=-0.0 size=N/A time=00:02:17.09 bitrate=N/A speed=17.7x    frame= 3495 fps=424 q=-0.0 size=N/A time=00:02:25.77 bitrate=N/A speed=17.7x    frame= 3706 fps=423 q=-0.0 size=N/A time=00:02:34.57 bitrate=N/A speed=17.6x    frame= 3979 fps=429 q=-0.0 size=N/A time=00:02:45.95 bitrate=N/A speed=17.9x    frame= 4238 fps=433 q=-0.0 size=N/A time=00:02:56.75 bitrate=N/A speed=  18x    frame= 4502 fps=436 q=-0.0 size=N/A time=00:03:07.77 bitrate=N/A speed=18.2x    frame= 4764 fps=440 q=-0.0 size=N/A time=00:03:18.69 bitrate=N/A speed=18.4x    frame= 5047 fps=445 q=-0.0 size=N/A time=00:03:30.50 bitrate=N/A speed=18.6x    frame= 5296 fps=447 q=-0.0 size=N/A time=00:03:40.88 bitrate=N/A speed=18.6x    frame= 5519 fps=446 q=-0.0 size=N/A time=00:03:50.18 bitrate=N/A speed=18.6x    frame= 5776 fps=448 q=-0.0 size=N/A time=00:04:00.90 bitrate=N/A speed=18.7x    frame= 6038 fps=450 q=-0.0 size=N/A time=00:04:11.83 bitrate=N/A speed=18.8x    frame= 6251 fps=449 q=-0.0 size=N/A time=00:04:20.71 bitrate=N/A speed=18.7x    frame= 6495 fps=450 q=-0.0 size=N/A time=00:04:30.89 bitrate=N/A speed=18.8x    frame= 6739 fps=451 q=-0.0 size=N/A time=00:04:41.07 bitrate=N/A speed=18.8x    frame= 6981 fps=451 q=-0.0 size=N/A time=00:04:51.16 bitrate=N/A speed=18.8x    frame= 7229 fps=452 q=-0.0 size=N/A time=00:05:01.50 bitrate=N/A speed=18.9x    frame= 7459 fps=452 q=-0.0 size=N/A time=00:05:11.10 bitrate=N/A speed=18.9x    frame= 7704 fps=453 q=-0.0 size=N/A time=00:05:21.32 bitrate=N/A speed=18.9x    frame= 7925 fps=452 q=-0.0 size=N/A time=00:05:30.53 bitrate=N/A speed=18.9x    frame= 8095 fps=448 q=-0.0 size=N/A time=00:05:37.62 bitrate=N/A speed=18.7x    frame= 8249 fps=444 q=-0.0 size=N/A time=00:05:44.05 bitrate=N/A speed=18.5x    frame= 8432 fps=442 q=-0.0 size=N/A time=00:05:51.68 bitrate=N/A speed=18.4x    frame= 8669 fps=443 q=-0.0 size=N/A time=00:06:01.56 bitrate=N/A speed=18.5x    frame= 8855 fps=440 q=-0.0 size=N/A time=00:06:09.32 bitrate=N/A speed=18.4x    frame= 9029 fps=438 q=-0.0 size=N/A time=00:06:16.58 bitrate=N/A speed=18.3x    frame= 9195 fps=435 q=-0.0 size=N/A time=00:06:23.50 bitrate=N/A speed=18.1x    frame= 9401 fps=434 q=-0.0 size=N/A time=00:06:32.10 bitrate=N/A speed=18.1x    frame= 9670 fps=436 q=-0.0 size=N/A time=00:06:43.31 bitrate=N/A speed=18.2x    frame= 9921 fps=437 q=-0.0 size=N/A time=00:06:53.78 bitrate=N/A speed=18.2x    frame=10178 fps=439 q=-0.0 size=N/A time=00:07:04.50 bitrate=N/A speed=18.3x    frame=10391 fps=438 q=-0.0 size=N/A time=00:07:13.39 bitrate=N/A speed=18.3x    frame=10644 fps=439 q=-0.0 size=N/A time=00:07:23.94 bitrate=N/A speed=18.3x    frame=10899 fps=441 q=-0.0 size=N/A time=00:07:34.57 bitrate=N/A speed=18.4x    frame=11165 fps=442 q=-0.0 size=N/A time=00:07:45.67 bitrate=N/A speed=18.4x    frame=11379 fps=441 q=-0.0 size=N/A time=00:07:54.59 bitrate=N/A speed=18.4x    frame=11632 fps=442 q=-0.0 size=N/A time=00:08:05.15 bitrate=N/A speed=18.5x    frame=11886 fps=443 q=-0.0 size=N/A time=00:08:15.74 bitrate=N/A speed=18.5x    frame=12147 fps=444 q=-0.0 size=N/A time=00:08:26.63 bitrate=N/A speed=18.5x    frame=12417 fps=446 q=-0.0 size=N/A time=00:08:37.89 bitrate=N/A speed=18.6x    frame=12686 fps=447 q=-0.0 size=N/A time=00:08:49.11 bitrate=N/A speed=18.7x    frame=12946 fps=448 q=-0.0 size=N/A time=00:08:59.95 bitrate=N/A speed=18.7x    frame=13218 fps=450 q=-0.0 size=N/A time=00:09:11.30 bitrate=N/A speed=18.8x    frame=13464 fps=450 q=-0.0 size=N/A time=00:09:21.56 bitrate=N/A speed=18.8x    frame=13718 fps=451 q=-0.0 size=N/A time=00:09:32.15 bitrate=N/A speed=18.8x    frame=13987 fps=452 q=-0.0 size=N/A time=00:09:43.37 bitrate=N/A speed=18.9x    frame=14267 fps=454 q=-0.0 size=N/A time=00:09:55.05 bitrate=N/A speed=18.9x    frame=14567 fps=456 q=-0.0 size=N/A time=00:10:07.56 bitrate=N/A speed=  19x    frame=14842 fps=457 q=-0.0 size=N/A time=00:10:19.03 bitrate=N/A speed=19.1x    frame=15109 fps=458 q=-0.0 size=N/A time=00:10:30.17 bitrate=N/A speed=19.1x    frame=15356 fps=458 q=-0.0 size=N/A time=00:10:40.47 bitrate=N/A speed=19.1x    frame=15611 fps=459 q=-0.0 size=N/A time=00:10:51.10 bitrate=N/A speed=19.1x    frame=15873 fps=459 q=-0.0 size=N/A time=00:11:02.03 bitrate=N/A speed=19.2x    frame=16147 fps=461 q=-0.0 size=N/A time=00:11:13.46 bitrate=N/A speed=19.2x    frame=16428 fps=462 q=-0.0 size=N/A time=00:11:25.18 bitrate=N/A speed=19.3x    frame=16700 fps=463 q=-0.0 size=N/A time=00:11:36.52 bitrate=N/A speed=19.3x    frame=16954 fps=463 q=-0.0 size=N/A time=00:11:47.12 bitrate=N/A speed=19.3x    frame=17184 fps=463 q=-0.0 size=N/A time=00:11:56.71 bitrate=N/A speed=19.3x    frame=17456 fps=464 q=-0.0 size=N/A time=00:12:08.06 bitrate=N/A speed=19.3x    frame=17728 fps=465 q=-0.0 size=N/A time=00:12:19.40 bitrate=N/A speed=19.4x    frame=17984 fps=465 q=-0.0 size=N/A time=00:12:30.08 bitrate=N/A speed=19.4x    frame=18262 fps=466 q=-0.0 size=N/A time=00:12:41.67 bitrate=N/A speed=19.4x    frame=18537 fps=467 q=-0.0 size=N/A time=00:12:53.14 bitrate=N/A speed=19.5x    frame=18787 fps=467 q=-0.0 size=N/A time=00:13:03.57 bitrate=N/A speed=19.5x    frame=19058 fps=468 q=-0.0 size=N/A time=00:13:14.87 bitrate=N/A speed=19.5x    frame=19324 fps=469 q=-0.0 size=N/A time=00:13:25.97 bitrate=N/A speed=19.5x    frame=19568 fps=469 q=-0.0 size=N/A time=00:13:36.14 bitrate=N/A speed=19.5x    frame=19761 fps=467 q=-0.0 size=N/A time=00:13:44.19 bitrate=N/A speed=19.5x    frame=19970 fps=467 q=-0.0 size=N/A time=00:13:52.91 bitrate=N/A speed=19.5x    frame=20203 fps=467 q=-0.0 size=N/A time=00:14:02.63 bitrate=N/A speed=19.5x    frame=20444 fps=466 q=-0.0 size=N/A time=00:14:12.68 bitrate=N/A speed=19.5x    frame=20730 fps=468 q=-0.0 size=N/A time=00:14:24.61 bitrate=N/A speed=19.5x    frame=20985 fps=468 q=-0.0 size=N/A time=00:14:35.24 bitrate=N/A speed=19.5x    frame=21260 fps=469 q=-0.0 size=N/A time=00:14:46.71 bitrate=N/A speed=19.5x    frame=21465 fps=468 q=-0.0 size=N/A time=00:14:55.26 bitrate=N/A speed=19.5x    frame=21756 fps=469 q=-0.0 size=N/A time=00:15:07.40 bitrate=N/A speed=19.6x    frame=21998 fps=469 q=-0.0 size=N/A time=00:15:17.49 bitrate=N/A speed=19.6x    frame=22250 fps=469 q=-0.0 size=N/A time=00:15:28.01 bitrate=N/A speed=19.6x    frame=22524 fps=470 q=-0.0 size=N/A time=00:15:39.43 bitrate=N/A speed=19.6x    frame=22814 fps=471 q=-0.0 size=N/A time=00:15:51.53 bitrate=N/A speed=19.6x    frame=23081 fps=471 q=-0.0 size=N/A time=00:16:02.67 bitrate=N/A speed=19.7x    frame=23381 fps=472 q=-0.0 size=N/A time=00:16:15.18 bitrate=N/A speed=19.7x    frame=23667 fps=473 q=-0.0 size=N/A time=00:16:27.11 bitrate=N/A speed=19.7x    frame=23892 fps=473 q=-0.0 size=N/A time=00:16:36.49 bitrate=N/A speed=19.7x    frame=24158 fps=473 q=-0.0 size=N/A time=00:16:47.58 bitrate=N/A speed=19.7x    frame=24437 fps=474 q=-0.0 size=N/A time=00:16:59.22 bitrate=N/A speed=19.8x    frame=24701 fps=474 q=-0.0 size=N/A time=00:17:10.23 bitrate=N/A speed=19.8x    frame=24968 fps=475 q=-0.0 size=N/A time=00:17:21.37 bitrate=N/A speed=19.8x    frame=25235 fps=475 q=-0.0 size=N/A time=00:17:32.50 bitrate=N/A speed=19.8x    frame=25513 fps=476 q=-0.0 size=N/A time=00:17:44.10 bitrate=N/A speed=19.8x    frame=25788 fps=476 q=-0.0 size=N/A time=00:17:55.57 bitrate=N/A speed=19.9x    frame=26057 fps=477 q=-0.0 size=N/A time=00:18:06.79 bitrate=N/A speed=19.9x    frame=26272 fps=476 q=-0.0 size=N/A time=00:18:15.76 bitrate=N/A speed=19.9x    frame=26518 fps=476 q=-0.0 size=N/A time=00:18:26.02 bitrate=N/A speed=19.9x    frame=26779 fps=477 q=-0.0 size=N/A time=00:18:36.90 bitrate=N/A speed=19.9x    frame=27033 fps=477 q=-0.0 size=N/A time=00:18:47.50 bitrate=N/A speed=19.9x    frame=27277 fps=477 q=-0.0 size=N/A time=00:18:57.67 bitrate=N/A speed=19.9x    frame=27549 fps=477 q=-0.0 size=N/A time=00:19:09.02 bitrate=N/A speed=19.9x    frame=27772 fps=477 q=-0.0 size=N/A time=00:19:18.32 bitrate=N/A speed=19.9x    frame=28044 fps=477 q=-0.0 size=N/A time=00:19:29.66 bitrate=N/A speed=19.9x    frame=28298 fps=477 q=-0.0 size=N/A time=00:19:40.26 bitrate=N/A speed=19.9x    frame=28559 fps=477 q=-0.0 size=N/A time=00:19:51.14 bitrate=N/A speed=19.9x    frame=28837 fps=478 q=-0.0 size=N/A time=00:20:02.74 bitrate=N/A speed=19.9x    frame=29113 fps=479 q=-0.0 size=N/A time=00:20:14.25 bitrate=N/A speed=  20x    frame=29361 fps=479 q=-0.0 size=N/A time=00:20:24.59 bitrate=N/A speed=  20x    frame=29597 fps=478 q=-0.0 size=N/A time=00:20:34.44 bitrate=N/A speed=19.9x    frame=29836 fps=478 q=-0.0 size=N/A time=00:20:44.40 bitrate=N/A speed=19.9x    frame=30064 fps=478 q=-0.0 size=N/A time=00:20:53.91 bitrate=N/A speed=19.9x    frame=30303 fps=478 q=-0.0 size=N/A time=00:21:03.88 bitrate=N/A speed=19.9x    frame=30556 fps=478 q=-0.0 size=N/A time=00:21:14.43 bitrate=N/A speed=19.9x    frame=30808 fps=478 q=-0.0 size=N/A time=00:21:24.95 bitrate=N/A speed=19.9x    frame=31032 fps=478 q=-0.0 size=N/A time=00:21:34.29 bitrate=N/A speed=19.9x    frame=31283 fps=478 q=-0.0 size=N/A time=00:21:44.76 bitrate=N/A speed=19.9x    frame=31535 fps=478 q=-0.0 size=N/A time=00:21:55.27 bitrate=N/A speed=19.9x    frame=31816 fps=478 q=-0.0 size=N/A time=00:22:06.99 bitrate=N/A speed=19.9x    frame=32075 fps=478 q=-0.0 size=N/A time=00:22:17.79 bitrate=N/A speed=19.9x    frame=32322 fps=478 q=-0.0 size=N/A time=00:22:28.09 bitrate=N/A speed=19.9x    frame=32561 fps=478 q=-0.0 size=N/A time=00:22:38.06 bitrate=N/A speed=19.9x    frame=32774 fps=478 q=-0.0 size=N/A time=00:22:46.94 bitrate=N/A speed=19.9x    frame=32958 fps=477 q=-0.0 size=N/A time=00:22:54.62 bitrate=N/A speed=19.9x    frame=33138 fps=476 q=-0.0 size=N/A time=00:23:02.13 bitrate=N/A speed=19.8x    frame=33341 fps=475 q=-0.0 size=N/A time=00:23:10.59 bitrate=N/A speed=19.8x    frame=33524 fps=474 q=-0.0 size=N/A time=00:23:18.23 bitrate=N/A speed=19.8x    frame=33720 fps=474 q=-0.0 size=N/A time=00:23:26.40 bitrate=N/A speed=19.8x    frame=33950 fps=473 q=-0.0 size=N/A time=00:23:35.99 bitrate=N/A speed=19.7x    frame=34132 fps=473 q=-0.0 size=N/A time=00:23:43.58 bitrate=N/A speed=19.7x    frame=34309 fps=472 q=-0.0 size=N/A time=00:23:50.97 bitrate=N/A speed=19.7x    frame=34488 fps=471 q=-0.0 size=N/A time=00:23:58.43 bitrate=N/A speed=19.6x    [Parsed_psnr_10 @ 000002dd216ace40] PSNR y:47.749609 u:50.607401 v:49.968903 average:48.440324 min:39.733852 max:inf
[out#0/null @ 000002dd20d74780] video:14923KiB audio:271636KiB subtitle:0KiB other streams:0KiB global headers:0KiB muxing overhead: unknown
frame=34731 fps=471 q=-0.0 Lsize=N/A time=00:24:08.57 bitrate=N/A speed=19.6x    
